<mxfile><diagram id="A2ul1h6wO0Ap5TAs7Hy3" name="Página-1"><mxGraphModel dx="662" dy="411" grid="1" gridSize="10" guides="1" tooltips="1" connect="1" arrows="1" fold="1" page="1" pageScale="1" pageWidth="827" pageHeight="1169" math="0" shadow="0"><root><mxCell id="0"/><mxCell id="1" parent="0"/><mxCell id="4" value="" style="edgeStyle=none;html=1;" parent="1" source="2" target="3" edge="1"><mxGeometry relative="1" as="geometry"/></mxCell><mxCell id="2" value="inicio" style="ellipse;whiteSpace=wrap;html=1;fillColor=#60a917;fontColor=#ffffff;strokeColor=#2D7600;" parent="1" vertex="1"><mxGeometry x="270" y="60" width="120" height="80" as="geometry"/></mxCell><mxCell id="6" value="" style="edgeStyle=none;html=1;" parent="1" source="3" target="5" edge="1"><mxGeometry relative="1" as="geometry"/></mxCell><mxCell id="3" value="nc, cp,&amp;nbsp; na, au, bi" style="shape=parallelogram;perimeter=parallelogramPerimeter;whiteSpace=wrap;html=1;fixedSize=1;fillColor=#1ba1e2;fontColor=#ffffff;strokeColor=#006EAF;" parent="1" vertex="1"><mxGeometry x="260" y="200" width="140" height="60" as="geometry"/></mxCell><mxCell id="8" value="" style="edgeStyle=none;html=1;" parent="1" source="5" target="7" edge="1"><mxGeometry relative="1" as="geometry"/></mxCell><mxCell id="5" value="nd = 0.3*nc + 0.3*np + 0.1*na + 0.1*au + 0.2*bi" style="rounded=0;whiteSpace=wrap;html=1;fillColor=#1ba1e2;fontColor=#ffffff;strokeColor=#006EAF;" parent="1" vertex="1"><mxGeometry x="210" y="320" width="240" height="100" as="geometry"/></mxCell><mxCell id="10" value="" style="edgeStyle=none;html=1;" parent="1" source="7" target="9" edge="1"><mxGeometry relative="1" as="geometry"/></mxCell><mxCell id="7" value="nd" style="shape=document;whiteSpace=wrap;html=1;boundedLbl=1;fillColor=#1ba1e2;fontColor=#ffffff;strokeColor=#006EAF;" parent="1" vertex="1"><mxGeometry x="270" y="490" width="120" height="80" as="geometry"/></mxCell><mxCell id="9" value="fin" style="ellipse;whiteSpace=wrap;html=1;fillColor=#60a917;fontColor=#ffffff;strokeColor=#2D7600;" parent="1" vertex="1"><mxGeometry x="270" y="630" width="120" height="80" as="geometry"/></mxCell></root></mxGraphModel></diagram></mxfile>